{
	"asset":{
		"generator":"Khronos glTF Blender I/O v5.0.21",
		"version":"2.0"
	},
	"scene":0,
	"scenes":[
		{
			"name":"Scene",
			"nodes":[
				69
			]
		}
	],
	"nodes":[
		{
			"name":"head",
			"rotation":[
				2.298005529155489e-05,
				7.901772960394737e-07,
				0.16080918908119202,
				0.9869855046272278
			],
			"scale":[
				1,
				1.0000001192092896,
				1.0000001192092896
			],
			"translation":[
				7.657193183898926,
				0.00011256813741056249,
				-1.450185663998127e-06
			]
		},
		{
			"children":[
				0
			],
			"name":"neck_01",
			"rotation":[
				-1.4533277862938121e-05,
				6.00994098931551e-06,
				-0.32104045152664185,
				0.947065532207489
			],
			"translation":[
				28.473461151123047,
				0.002610210794955492,
				5.62966670258902e-06
			]
		},
		{
			"name":"l_forearm_Muscle",
			"rotation":[
				0.46729180216789246,
				0.4672924280166626,
				-0.5306957960128784,
				0.530695915222168
			],
			"translation":[
				-3.814697265625e-06,
				-2.86102294921875e-06,
				-6.139278411865234e-05
			]
		},
		{
			"name":"middle_03_l",
			"rotation":[
				0.0015598653117194772,
				0.012689664959907532,
				-0.13332360982894897,
				0.9909901022911072
			],
			"scale":[
				1,
				1.0000001192092896,
				1
			],
			"translation":[
				3.7326879501342773,
				-3.127753734588623e-05,
				-4.0531158447265625e-06
			]
		},
		{
			"children":[
				3
			],
			"name":"middle_02_l",
			"rotation":[
				0.01118326373398304,
				-0.013612858951091766,
				0.11700639873743057,
				0.9929749369621277
			],
			"scale":[
				1,
				0.9999998807907104,
				0.9999999403953552
			],
			"translation":[
				4.614491939544678,
				5.662441253662109e-06,
				3.5762786865234375e-07
			]
		},
		{
			"children":[
				4
			],
			"name":"middle_01_l",
			"rotation":[
				0.008879406377673149,
				0.0001103658796637319,
				0.16796526312828064,
				0.9857529401779175
			],
			"scale":[
				1,
				1,
				0.9999999403953552
			],
			"translation":[
				11.373856544494629,
				-0.3232155442237854,
				-2.9128174781799316
			]
		},
		{
			"name":"index_03_l",
			"rotation":[
				-0.0016364991897717118,
				0.03222913667559624,
				-0.07749944180250168,
				0.9964699745178223
			],
			"scale":[
				0.9999998807907104,
				1.0000001192092896,
				1.0000001192092896
			],
			"translation":[
				3.553770065307617,
				1.7762184143066406e-05,
				7.152557373046875e-07
			]
		},
		{
			"children":[
				6
			],
			"name":"index_02_l",
			"rotation":[
				0.006137171294540167,
				-0.03450009599328041,
				0.09853427112102509,
				0.9945164918899536
			],
			"scale":[
				1.0000001192092896,
				1,
				1.0000001192092896
			],
			"translation":[
				4.317751884460449,
				2.8818845748901367e-05,
				-1.0728836059570312e-05
			]
		},
		{
			"children":[
				7
			],
			"name":"index_01_l",
			"rotation":[
				0.018279168754816055,
				0.047414448112249374,
				0.2020285278558731,
				0.9780604243278503
			],
			"scale":[
				0.9999998807907104,
				1,
				1
			],
			"translation":[
				10.838885307312012,
				0.4427923858165741,
				-5.4614763259887695
			]
		},
		{
			"name":"ring_03_l",
			"rotation":[
				-0.009822331368923187,
				-0.005222473759204149,
				-0.07287680357694626,
				0.9972789287567139
			],
			"scale":[
				1,
				0.9999998807907104,
				0.9999999403953552
			],
			"translation":[
				3.531747341156006,
				4.303455352783203e-05,
				-4.76837158203125e-07
			]
		},
		{
			"children":[
				9
			],
			"name":"ring_02_l",
			"rotation":[
				0.005125806201249361,
				-0.015486828051507473,
				0.11826038360595703,
				0.9928486347198486
			],
			"scale":[
				1,
				1.0000001192092896,
				0.9999998807907104
			],
			"translation":[
				4.572224140167236,
				8.821487426757812e-06,
				9.5367431640625e-06
			]
		},
		{
			"children":[
				10
			],
			"name":"ring_01_l",
			"rotation":[
				0.006219772156327963,
				-0.03709133714437485,
				0.16842105984687805,
				0.9849973917007446
			],
			"scale":[
				0.9999998211860657,
				1,
				0.9999998807907104
			],
			"translation":[
				11.47204875946045,
				-1.7434358596801758e-06,
				2.1457672119140625e-06
			]
		},
		{
			"name":"pinky_03_l",
			"rotation":[
				-0.005359346512705088,
				-0.004676903132349253,
				-0.01994440145790577,
				0.9997758269309998
			],
			"scale":[
				0.9999999403953552,
				0.9999999403953552,
				0.9999999403953552
			],
			"translation":[
				3.4861648082733154,
				3.266334533691406e-05,
				-5.066394805908203e-06
			]
		},
		{
			"children":[
				12
			],
			"name":"pinky_02_l",
			"rotation":[
				0.0022281312849372625,
				0.005544113460928202,
				0.09846644103527069,
				0.995122492313385
			],
			"scale":[
				0.9999998211860657,
				0.9999999403953552,
				0.9999998211860657
			],
			"translation":[
				3.7913496494293213,
				-1.284480094909668e-05,
				1.2755393981933594e-05
			]
		},
		{
			"children":[
				13
			],
			"name":"pinky_01_l",
			"rotation":[
				-0.0008079870603978634,
				-0.10518219321966171,
				0.12595118582248688,
				0.986444354057312
			],
			"scale":[
				0.9999999403953552,
				0.9999999403953552,
				0.9999999403953552
			],
			"translation":[
				11.003223419189453,
				0.4428267776966095,
				2.5956132411956787
			]
		},
		{
			"name":"thumb_03_l",
			"rotation":[
				-0.00633825222030282,
				0.014425190165638924,
				-0.15215766429901123,
				0.9882306456565857
			],
			"scale":[
				0.9999999403953552,
				0.9999998807907104,
				1
			],
			"translation":[
				3.3523993492126465,
				2.1457672119140625e-06,
				-1.1920928955078125e-05
			]
		},
		{
			"children":[
				15
			],
			"name":"thumb_02_l",
			"rotation":[
				-0.016138341277837753,
				0.08944783359766006,
				0.2220148742198944,
				0.970797598361969
			],
			"scale":[
				1.0000001192092896,
				1.000000238418579,
				0.9999999403953552
			],
			"translation":[
				4.864346504211426,
				2.1964311599731445e-05,
				-4.795938730239868e-05
			]
		},
		{
			"children":[
				16
			],
			"name":"thumb_01_l",
			"rotation":[
				0.6021866798400879,
				0.4314114451408386,
				-0.18028484284877777,
				0.6471111178398132
			],
			"scale":[
				0.9999999403953552,
				0.9999999403953552,
				1.0000001192092896
			],
			"translation":[
				2.459963321685791,
				0.9557098746299744,
				-4.205279350280762
			]
		},
		{
			"children":[
				5,
				8,
				11,
				14,
				17
			],
			"name":"hand_l",
			"rotation":[
				-0.6563060283660889,
				-0.043350283056497574,
				0.06313809752464294,
				0.7505975961685181
			],
			"scale":[
				0.9999999403953552,
				1,
				1
			],
			"translation":[
				23.71062469482422,
				9.5367431640625e-07,
				-3.3855438232421875e-05
			]
		},
		{
			"name":"lowerarm_twist_01_l",
			"rotation":[
				0.07603992521762848,
				3.829509751085425e-06,
				4.247953711455921e-06,
				0.997104823589325
			],
			"scale":[
				1.0000001192092896,
				1,
				0.9999999403953552
			],
			"translation":[
				11.855300903320312,
				-0.0002956390380859375,
				0.00014138221740722656
			]
		},
		{
			"children":[
				2,
				18,
				19
			],
			"name":"lowerarm_l",
			"rotation":[
				0.014681033790111542,
				-0.06188651919364929,
				-0.24977083504199982,
				0.9662137627601624
			],
			"translation":[
				28.88936996459961,
				-0.00014591217041015625,
				2.5987625122070312e-05
			]
		},
		{
			"name":"l_upperarm_Muscle",
			"rotation":[
				0.464903861284256,
				0.4649037718772888,
				-0.5327878594398499,
				0.5327906608581543
			],
			"scale":[
				0.9999999403953552,
				0.9999998807907104,
				0.9999998807907104
			],
			"translation":[
				14.444610595703125,
				8.45193862915039e-05,
				0.00010389089584350586
			]
		},
		{
			"children":[
				21
			],
			"name":"upperarm_twist_01_l",
			"rotation":[
				0.06788568943738937,
				6.900429525558138e-07,
				-8.52030211717647e-07,
				0.9976931214332581
			],
			"translation":[
				3.5881996154785156e-05,
				1.33514404296875e-05,
				-7.081031799316406e-05
			]
		},
		{
			"children":[
				20,
				22
			],
			"name":"upperarm_l",
			"rotation":[
				0.06063980981707573,
				0.37806448340415955,
				-0.11618906259536743,
				0.9164552092552185
			],
			"scale":[
				1,
				1.0000001192092896,
				1
			],
			"translation":[
				15.584120750427246,
				-2.7481906414031982,
				-1.3846371173858643
			]
		},
		{
			"children":[
				23
			],
			"name":"clavicle_l",
			"rotation":[
				0.21723075211048126,
				0.6974329948425293,
				0.07319928705692291,
				0.6789992451667786
			],
			"scale":[
				0.9999998807907104,
				0.9999998211860657,
				0.9999998211860657
			],
			"translation":[
				22.37392234802246,
				1.520011067390442,
				-5.342150688171387
			]
		},
		{
			"name":"r_upperarm_Muscle",
			"rotation":[
				-0.5327640771865845,
				0.5327580571174622,
				0.4649348556995392,
				0.46493759751319885
			],
			"scale":[
				0.9999999403953552,
				0.9999998807907104,
				1
			],
			"translation":[
				-14.444620132446289,
				-3.075599670410156e-05,
				-7.11679458618164e-05
			]
		},
		{
			"children":[
				25
			],
			"name":"upperarm_twist_01_r",
			"rotation":[
				0.0678246021270752,
				2.471921561664203e-06,
				-4.088607283847523e-07,
				0.9976972937583923
			],
			"scale":[
				1,
				1.0000001192092896,
				0.9999999403953552
			],
			"translation":[
				-6.67572021484375e-06,
				-1.0371208190917969e-05,
				1.7881393432617188e-05
			]
		},
		{
			"name":"r_forearm_Muscle",
			"rotation":[
				-0.5307008624076843,
				0.5307006239891052,
				0.4672871232032776,
				0.4672861099243164
			],
			"scale":[
				0.9999998807907104,
				0.9999998807907104,
				1
			],
			"translation":[
				-2.09808349609375e-05,
				5.7220458984375e-06,
				-1.5616416931152344e-05
			]
		},
		{
			"name":"middle_03_r",
			"rotation":[
				0.0014876102795824409,
				0.012452109716832638,
				-0.13330259919166565,
				0.9909960627555847
			],
			"scale":[
				1,
				0.9999998807907104,
				0.9999999403953552
			],
			"translation":[
				-3.7327098846435547,
				-2.734363079071045e-05,
				-1.0728836059570312e-06
			]
		},
		{
			"children":[
				28
			],
			"name":"middle_02_r",
			"rotation":[
				0.010784873738884926,
				-0.013306938111782074,
				0.11676359176635742,
				0.993012011051178
			],
			"translation":[
				-4.614564418792725,
				1.0579824447631836e-06,
				-8.344650268554688e-06
			]
		},
		{
			"children":[
				29
			],
			"name":"middle_01_r",
			"rotation":[
				0.00849186722189188,
				-1.0495709830138367e-05,
				0.16759292781352997,
				0.9858197569847107
			],
			"scale":[
				0.9999998807907104,
				0.9999997615814209,
				0.9999998211860657
			],
			"translation":[
				-11.37381649017334,
				0.3231794834136963,
				2.912813663482666
			]
		},
		{
			"name":"ring_03_r",
			"rotation":[
				-0.006983106955885887,
				0.017971262335777283,
				-0.07539793103933334,
				0.9969671368598938
			],
			"scale":[
				1,
				0.9999999403953552,
				1
			],
			"translation":[
				-3.531752109527588,
				-5.364418029785156e-05,
				6.67572021484375e-06
			]
		},
		{
			"children":[
				31
			],
			"name":"ring_02_r",
			"rotation":[
				0.005080545786768198,
				-0.01531236246228218,
				0.11833298206329346,
				0.9928428530693054
			],
			"scale":[
				0.9999999403953552,
				1.0000001192092896,
				1.0000001192092896
			],
			"translation":[
				-4.572269439697266,
				3.325939178466797e-05,
				3.337860107421875e-06
			]
		},
		{
			"children":[
				32
			],
			"name":"ring_01_r",
			"rotation":[
				0.006437900010496378,
				-0.03721083328127861,
				0.16834485530853271,
				0.9850046038627625
			],
			"scale":[
				1,
				0.9999998211860657,
				0.9999998211860657
			],
			"translation":[
				-11.47200870513916,
				-9.238719940185547e-06,
				-8.344650268554688e-06
			]
		},
		{
			"name":"thumb_03_r",
			"rotation":[
				-0.0063816094771027565,
				0.013734779320657253,
				-0.15253613889217377,
				0.9881818294525146
			],
			"translation":[
				-3.3523788452148438,
				3.6954879760742188e-06,
				4.661083221435547e-05
			]
		},
		{
			"children":[
				34
			],
			"name":"thumb_02_r",
			"rotation":[
				-0.016133900731801987,
				0.08936091512441635,
				0.22207944095134735,
				0.9707909226417542
			],
			"scale":[
				1,
				1.0000001192092896,
				1
			],
			"translation":[
				-4.864362716674805,
				1.208484172821045e-05,
				2.771615982055664e-06
			]
		},
		{
			"children":[
				35
			],
			"name":"thumb_01_r",
			"rotation":[
				0.6021215319633484,
				0.43152573704719543,
				-0.18044984340667725,
				0.647049605846405
			],
			"scale":[
				0.9999998807907104,
				0.9999999403953552,
				0.9999998211860657
			],
			"translation":[
				-2.4599623680114746,
				-0.9558176398277283,
				4.205268859863281
			]
		},
		{
			"name":"index_03_r",
			"rotation":[
				-0.001782289589755237,
				0.0319957472383976,
				-0.07711238414049149,
				0.9965072870254517
			],
			"scale":[
				1,
				1.0000001192092896,
				1
			],
			"translation":[
				-3.553764820098877,
				-2.8848648071289062e-05,
				-1.1920928955078125e-06
			]
		},
		{
			"children":[
				37
			],
			"name":"index_02_r",
			"rotation":[
				0.0062653240747749805,
				-0.03429210186004639,
				0.09829297661781311,
				0.9945467710494995
			],
			"scale":[
				1,
				1.0000001192092896,
				0.9999998807907104
			],
			"translation":[
				-4.317810535430908,
				-5.574524402618408e-05,
				-1.1146068572998047e-05
			]
		},
		{
			"children":[
				38
			],
			"name":"index_01_r",
			"rotation":[
				0.017679039388895035,
				0.04719213396310806,
				0.20161032676696777,
				0.9781684875488281
			],
			"scale":[
				0.9999998807907104,
				0.9999998807907104,
				0.9999997615814209
			],
			"translation":[
				-10.838866233825684,
				-0.44288983941078186,
				5.461468696594238
			]
		},
		{
			"name":"pinky_03_r",
			"rotation":[
				-0.004068478010594845,
				-0.0011504405410960317,
				0.0033943390008062124,
				0.9999853372573853
			],
			"scale":[
				1,
				1,
				1.0000001192092896
			],
			"translation":[
				-3.486222982406616,
				-1.4603137969970703e-05,
				-4.5299530029296875e-06
			]
		},
		{
			"children":[
				40
			],
			"name":"pinky_02_r",
			"rotation":[
				0.0019999949727207422,
				0.005777719896286726,
				0.09820050001144409,
				0.9951478838920593
			],
			"scale":[
				0.9999999403953552,
				1,
				0.9999998807907104
			],
			"translation":[
				-3.7913949489593506,
				4.947185516357422e-06,
				-4.231929779052734e-06
			]
		},
		{
			"children":[
				41
			],
			"name":"pinky_01_r",
			"rotation":[
				-0.0006933441618457437,
				-0.10478003323078156,
				0.12605342268943787,
				0.9864741563796997
			],
			"scale":[
				1,
				0.9999998211860657,
				0.9999998211860657
			],
			"translation":[
				-11.003189086914062,
				-0.4428938627243042,
				-2.595618486404419
			]
		},
		{
			"children":[
				30,
				33,
				36,
				39,
				42
			],
			"name":"hand_r",
			"rotation":[
				-0.6566150784492493,
				-0.043250758200883865,
				0.06280744075775146,
				0.7503607869148254
			],
			"scale":[
				1,
				0.9999999403953552,
				1
			],
			"translation":[
				-23.710586547851562,
				9.059906005859375e-06,
				-1.6987323760986328e-05
			]
		},
		{
			"name":"lowerarm_twist_01_r",
			"rotation":[
				0.0757657140493393,
				3.7789932321175e-06,
				3.948982339352369e-06,
				0.9971256852149963
			],
			"translation":[
				-11.855294227600098,
				0.00014591217041015625,
				-6.246566772460938e-05
			]
		},
		{
			"children":[
				27,
				43,
				44
			],
			"name":"lowerarm_r",
			"rotation":[
				0.014544195495545864,
				-0.06249936670064926,
				-0.24952074885368347,
				0.9662410616874695
			],
			"scale":[
				1,
				0.9999999403953552,
				0.9999999403953552
			],
			"translation":[
				-28.88933753967285,
				-6.711483001708984e-05,
				-0.00035572052001953125
			]
		},
		{
			"children":[
				26,
				45
			],
			"name":"upperarm_r",
			"rotation":[
				0.060727596282958984,
				0.3780656158924103,
				-0.11708644032478333,
				0.9163347482681274
			],
			"scale":[
				1,
				0.9999999403953552,
				0.9999999403953552
			],
			"translation":[
				-15.58411693572998,
				2.748192071914673,
				1.3846596479415894
			]
		},
		{
			"children":[
				46
			],
			"name":"clavicle_r",
			"rotation":[
				0.6969345211982727,
				-0.21730391681194305,
				-0.6795086860656738,
				0.07300083339214325
			],
			"scale":[
				1.0000001192092896,
				1.0000001192092896,
				1.0000003576278687
			],
			"translation":[
				22.373918533325195,
				1.5199726819992065,
				5.342174053192139
			]
		},
		{
			"children":[
				1,
				24,
				47
			],
			"name":"spine_03",
			"rotation":[
				-7.761918823234737e-06,
				1.0223604931525188e-06,
				0.07423757761716843,
				0.9972406029701233
			],
			"scale":[
				0.9999999403953552,
				0.9999999403953552,
				1
			],
			"translation":[
				13.290372848510742,
				-1.16339111328125,
				-2.935417342087021e-06
			]
		},
		{
			"children":[
				48
			],
			"name":"spine_02",
			"rotation":[
				1.0477646839035515e-07,
				-2.488388872734504e-06,
				-0.049501873552799225,
				0.998773992061615
			],
			"scale":[
				0.9999998807907104,
				0.9999999403953552,
				1.0000001192092896
			],
			"translation":[
				5.256287574768066,
				-0.926722526550293,
				2.398724973318167e-05
			]
		},
		{
			"children":[
				49
			],
			"name":"spine_01",
			"rotation":[
				4.210630777379265e-06,
				-1.5099496522452682e-05,
				0.03451479971408844,
				0.9994041919708252
			],
			"translation":[
				10.499167442321777,
				-2.047618865966797,
				1.7218029825016856e-05
			]
		},
		{
			"name":"ball_l",
			"rotation":[
				-0.0049536265432834625,
				-0.036483392119407654,
				-0.6688326001167297,
				0.7425007820129395
			],
			"scale":[
				1,
				1,
				0.9999998807907104
			],
			"translation":[
				-4.343836784362793,
				-16.918622970581055,
				0.22348400950431824
			]
		},
		{
			"children":[
				51
			],
			"name":"foot_l",
			"rotation":[
				0.0445784255862236,
				0.05599309131503105,
				-0.08849132061004639,
				0.9935023188591003
			],
			"scale":[
				0.9999998807907104,
				1.0000001192092896,
				0.9999999403953552
			],
			"translation":[
				-37.19159698486328,
				0.005354359745979309,
				-0.0008909315802156925
			]
		},
		{
			"name":"calf_twist_01_l",
			"rotation":[
				0.004305326845496893,
				2.584517346804205e-07,
				1.2149652093285113e-06,
				0.9999907612800598
			],
			"scale":[
				0.9999999403953552,
				1.0000001192092896,
				0.9999999403953552
			],
			"translation":[
				-4.139542579650879e-05,
				-1.3306736946105957e-05,
				-7.124675903469324e-06
			]
		},
		{
			"name":"l_calf_Muscle",
			"rotation":[
				0.009754639118909836,
				-2.414168420727947e-07,
				-2.351614057261031e-06,
				0.9999524354934692
			],
			"scale":[
				0.9999998807907104,
				1,
				1
			],
			"translation":[
				-18.59586524963379,
				0.0026740580797195435,
				-0.000452402513474226
			]
		},
		{
			"children":[
				52,
				53,
				54
			],
			"name":"calf_l",
			"rotation":[
				-0.008889161050319672,
				0.04245046526193619,
				-0.1368083506822586,
				0.989647626876831
			],
			"scale":[
				0.9999999403953552,
				0.9999998807907104,
				1
			],
			"translation":[
				-43.96759796142578,
				0.0009688958525657654,
				0.0016137221828103065
			]
		},
		{
			"name":"thigh_twist_01_l",
			"rotation":[
				-0.00316408509388566,
				6.339969695545733e-05,
				-8.547212928533554e-06,
				0.9999949932098389
			],
			"scale":[
				1,
				0.9999998211860657,
				1
			],
			"translation":[
				4.2051076889038086e-05,
				-2.7585774660110474e-06,
				-5.386769771575928e-06
			]
		},
		{
			"name":"l_thigh_Muscle",
			"rotation":[
				3.367429826539592e-06,
				8.647592039778829e-06,
				-1.4705476132803597e-05,
				1
			],
			"scale":[
				0.9999999403953552,
				0.9999998807907104,
				1
			],
			"translation":[
				-21.985214233398438,
				0.0005925111472606659,
				0.0008050650358200073
			]
		},
		{
			"children":[
				55,
				56,
				57
			],
			"name":"thigh_l",
			"rotation":[
				-0.0004499971983022988,
				-0.07057703286409378,
				-0.023854438215494156,
				0.9972209930419922
			],
			"translation":[
				-2.8396780490875244,
				-1.1955063343048096,
				-10.684327125549316
			]
		},
		{
			"name":"thigh_twist_01_r",
			"rotation":[
				-0.003165649250149727,
				8.664370398037136e-06,
				-1.508758850832237e-05,
				0.9999949932098389
			],
			"scale":[
				1,
				1,
				0.9999999403953552
			],
			"translation":[
				4.985928535461426e-05,
				7.45430588722229e-06,
				1.4677643775939941e-06
			]
		},
		{
			"name":"ball_r",
			"rotation":[
				0.00486819026991725,
				-0.027633560821413994,
				-0.6691020727157593,
				0.7426406145095825
			],
			"scale":[
				0.9999998807907104,
				0.9999999403953552,
				1
			],
			"translation":[
				4.336019039154053,
				16.920635223388672,
				0.22422274947166443
			]
		},
		{
			"children":[
				60
			],
			"name":"foot_r",
			"rotation":[
				0.031159555539488792,
				0.057008296251297,
				-0.08774575591087341,
				0.9940220713615417
			],
			"scale":[
				0.9999998211860657,
				0.9999999403953552,
				1
			],
			"translation":[
				37.191551208496094,
				-0.0058440715074539185,
				0.0008456017822027206
			]
		},
		{
			"name":"calf_twist_01_r",
			"rotation":[
				0.004196546506136656,
				-1.2262392374395858e-05,
				-6.947929796297103e-05,
				0.9999911785125732
			],
			"scale":[
				1,
				0.9999999403953552,
				1
			],
			"translation":[
				-2.82973051071167e-05,
				-2.980232238769531e-07,
				-2.0704464986920357e-07
			]
		},
		{
			"name":"r_calf_Muscle",
			"rotation":[
				0.009617282077670097,
				-1.2877512745035347e-06,
				-2.5234187432943145e-06,
				0.9999537467956543
			],
			"scale":[
				1,
				0.9999998807907104,
				0.9999999403953552
			],
			"translation":[
				18.595788955688477,
				-0.0026815831661224365,
				0.0004376636352390051
			]
		},
		{
			"children":[
				61,
				62,
				63
			],
			"name":"calf_r",
			"rotation":[
				-0.00885208509862423,
				0.04229185730218887,
				-0.13669545948505402,
				0.9896703362464905
			],
			"scale":[
				1.0000001192092896,
				0.9999998211860657,
				1
			],
			"translation":[
				43.967620849609375,
				-0.001550436019897461,
				-0.0016322238370776176
			]
		},
		{
			"name":"r_thigh_Muscle",
			"rotation":[
				3.091234475505189e-06,
				8.212809916585684e-06,
				-1.5360390534624457e-05,
				1
			],
			"scale":[
				1.0000001192092896,
				0.9999999403953552,
				1
			],
			"translation":[
				21.98226547241211,
				-0.0006197094917297363,
				-0.0008201524615287781
			]
		},
		{
			"children":[
				59,
				64,
				65
			],
			"name":"thigh_r",
			"rotation":[
				0.07047893851995468,
				-0.00041904181125573814,
				0.9972267150878906,
				0.023904673755168915
			],
			"scale":[
				1.0000011920928955,
				1,
				1
			],
			"translation":[
				-2.8397326469421387,
				-1.1955783367156982,
				10.684306144714355
			]
		},
		{
			"children":[
				50,
				58,
				66
			],
			"name":"pelvis",
			"rotation":[
				-0.5294564962387085,
				-0.46869713068008423,
				0.5294395685195923,
				0.46871376037597656
			],
			"scale":[
				1,
				1,
				1.0000001192092896
			],
			"translation":[
				0.0006397952092811465,
				98.50720977783203,
				-5.575165271759033
			]
		},
		{
			"mesh":0,
			"name":"trooper_gloves",
			"skin":0
		},
		{
			"children":[
				68,
				67
			],
			"name":"root",
			"scale":[
				0.009999999776482582,
				0.009999999776482582,
				0.009999999776482582
			]
		}
	],
	"materials":[
		{
			"doubleSided":true,
			"emissiveFactor":[
				1,
				1,
				1
			],
			"emissiveTexture":{
				"index":0
			},
			"name":"trooper_armor",
			"normalTexture":{
				"index":1
			},
			"pbrMetallicRoughness":{
				"baseColorTexture":{
					"index":2
				},
				"metallicRoughnessTexture":{
					"index":3
				}
			}
		}
	],
	"meshes":[
		{
			"name":"trooper_gloves",
			"primitives":[
				{
					"attributes":{
						"POSITION":0,
						"NORMAL":1,
						"TEXCOORD_0":2,
						"TANGENT":3,
						"JOINTS_0":4,
						"WEIGHTS_0":5
					},
					"indices":6,
					"material":0
				}
			]
		}
	],
	"textures":[
		{
			"sampler":0,
			"source":0
		},
		{
			"sampler":0,
			"source":1
		},
		{
			"sampler":0,
			"source":2
		},
		{
			"sampler":0,
			"source":3
		}
	],
	"images":[
		{
			"mimeType":"image/png",
			"name":"T_SciFiTrooperV3_top_emissive.png",
			"uri":"trooper_armor_emissive.png"
		},
		{
			"mimeType":"image/png",
			"name":"T_SciFiTrooperV3_top_n.png",
			"uri":"trooper_armor_normal.png"
		},
		{
			"mimeType":"image/png",
			"name":"T_SciFiTrooperV3_top_a.png",
			"uri":"trooper_armor_albedo.png"
		},
		{
			"mimeType":"image/png",
			"name":"trooper_armor_orm",
			"uri":"trooper_armor_orm.png"
		}
	],
	"skins":[
		{
			"inverseBindMatrices":7,
			"joints":[
				67,
				50,
				49,
				48,
				1,
				0,
				24,
				23,
				20,
				2,
				18,
				5,
				4,
				3,
				8,
				7,
				6,
				11,
				10,
				9,
				14,
				13,
				12,
				17,
				16,
				15,
				19,
				22,
				21,
				47,
				46,
				26,
				25,
				45,
				27,
				43,
				30,
				29,
				28,
				33,
				32,
				31,
				36,
				35,
				34,
				39,
				38,
				37,
				42,
				41,
				40,
				44,
				58,
				55,
				52,
				51,
				53,
				54,
				56,
				57,
				66,
				59,
				64,
				61,
				60,
				62,
				63,
				65
			],
			"name":"root"
		}
	],
	"accessors":[
		{
			"bufferView":0,
			"componentType":5126,
			"count":2378,
			"max":[
				0.6550971865653992,
				1.286292552947998,
				-0.0013765236362814903
			],
			"min":[
				-0.652411699295044,
				1.053901195526123,
				-0.21443186700344086
			],
			"type":"VEC3"
		},
		{
			"bufferView":1,
			"componentType":5126,
			"count":2378,
			"type":"VEC3"
		},
		{
			"bufferView":2,
			"componentType":5126,
			"count":2378,
			"type":"VEC2"
		},
		{
			"bufferView":3,
			"componentType":5126,
			"count":2378,
			"type":"VEC4"
		},
		{
			"bufferView":4,
			"componentType":5121,
			"count":2378,
			"type":"VEC4"
		},
		{
			"bufferView":5,
			"componentType":5126,
			"count":2378,
			"type":"VEC4"
		},
		{
			"bufferView":6,
			"componentType":5123,
			"count":3492,
			"type":"SCALAR"
		},
		{
			"bufferView":7,
			"componentType":5126,
			"count":68,
			"type":"MAT4"
		}
	],
	"bufferViews":[
		{
			"buffer":0,
			"byteLength":28536,
			"byteOffset":0,
			"target":34962
		},
		{
			"buffer":0,
			"byteLength":28536,
			"byteOffset":28536,
			"target":34962
		},
		{
			"buffer":0,
			"byteLength":19024,
			"byteOffset":57072,
			"target":34962
		},
		{
			"buffer":0,
			"byteLength":38048,
			"byteOffset":76096,
			"target":34962
		},
		{
			"buffer":0,
			"byteLength":9512,
			"byteOffset":114144,
			"target":34962
		},
		{
			"buffer":0,
			"byteLength":38048,
			"byteOffset":123656,
			"target":34962
		},
		{
			"buffer":0,
			"byteLength":6984,
			"byteOffset":161704,
			"target":34963
		},
		{
			"buffer":0,
			"byteLength":4352,
			"byteOffset":168688
		}
	],
	"samplers":[
		{
			"magFilter":9729,
			"minFilter":9987
		}
	],
	"buffers":[
		{
			"byteLength":173040,
			"uri":"gloves.bin"
		}
	]
}
