{
	"asset":{
		"generator":"Khronos glTF Blender I/O v5.0.21",
		"version":"2.0"
	},
	"scene":0,
	"scenes":[
		{
			"name":"Scene",
			"nodes":[
				0
			]
		}
	],
	"nodes":[
		{
			"mesh":0,
			"name":"trooper_viewmodel_arm_r"
		}
	],
	"materials":[
		{
			"doubleSided":true,
			"emissiveFactor":[
				1,
				1,
				1
			],
			"emissiveTexture":{
				"index":0
			},
			"name":"trooper_body",
			"normalTexture":{
				"index":1
			},
			"pbrMetallicRoughness":{
				"baseColorTexture":{
					"index":2
				},
				"metallicRoughnessTexture":{
					"index":3
				}
			}
		},
		{
			"doubleSided":true,
			"emissiveFactor":[
				1,
				1,
				1
			],
			"emissiveTexture":{
				"index":4
			},
			"name":"trooper_armor",
			"normalTexture":{
				"index":5
			},
			"pbrMetallicRoughness":{
				"baseColorTexture":{
					"index":6
				},
				"metallicRoughnessTexture":{
					"index":7
				}
			}
		}
	],
	"meshes":[
		{
			"name":"trooper_viewmodel_arm_r",
			"primitives":[
				{
					"attributes":{
						"POSITION":0,
						"NORMAL":1,
						"TEXCOORD_0":2,
						"TANGENT":3
					},
					"indices":4,
					"material":0
				},
				{
					"attributes":{
						"POSITION":5,
						"NORMAL":6,
						"TEXCOORD_0":7,
						"TANGENT":8
					},
					"indices":9,
					"material":1
				}
			]
		}
	],
	"textures":[
		{
			"sampler":0,
			"source":0
		},
		{
			"sampler":0,
			"source":1
		},
		{
			"sampler":0,
			"source":2
		},
		{
			"sampler":0,
			"source":3
		},
		{
			"sampler":0,
			"source":4
		},
		{
			"sampler":0,
			"source":5
		},
		{
			"sampler":0,
			"source":6
		},
		{
			"sampler":0,
			"source":7
		}
	],
	"images":[
		{
			"mimeType":"image/png",
			"name":"T_SciFiTrooperV3_bottom_emissive.png",
			"uri":"trooper_body_emissive.png"
		},
		{
			"mimeType":"image/png",
			"name":"T_SciFiTrooperV3_bottom_n.png",
			"uri":"trooper_body_normal.png"
		},
		{
			"mimeType":"image/png",
			"name":"T_SciFiTrooperV3_bottom_a.png",
			"uri":"trooper_body_albedo.png"
		},
		{
			"mimeType":"image/png",
			"name":"trooper_body_orm",
			"uri":"trooper_body_orm.png"
		},
		{
			"mimeType":"image/png",
			"name":"T_SciFiTrooperV3_top_emissive.png",
			"uri":"trooper_armor_emissive.png"
		},
		{
			"mimeType":"image/png",
			"name":"T_SciFiTrooperV3_top_n.png",
			"uri":"trooper_armor_normal.png"
		},
		{
			"mimeType":"image/png",
			"name":"T_SciFiTrooperV3_top_a.png",
			"uri":"trooper_armor_albedo.png"
		},
		{
			"mimeType":"image/png",
			"name":"trooper_armor_orm",
			"uri":"trooper_armor_orm.png"
		}
	],
	"accessors":[
		{
			"bufferView":0,
			"componentType":5126,
			"count":3058,
			"max":[
				0.04438769817352295,
				0.15910333395004272,
				0.08533608913421631
			],
			"min":[
				-0.08727365732192993,
				-0.12595924735069275,
				-0.08614575862884521
			],
			"type":"VEC3"
		},
		{
			"bufferView":1,
			"componentType":5126,
			"count":3058,
			"type":"VEC3"
		},
		{
			"bufferView":2,
			"componentType":5126,
			"count":3058,
			"type":"VEC2"
		},
		{
			"bufferView":3,
			"componentType":5126,
			"count":3058,
			"type":"VEC4"
		},
		{
			"bufferView":4,
			"componentType":5123,
			"count":4530,
			"type":"SCALAR"
		},
		{
			"bufferView":5,
			"componentType":5126,
			"count":769,
			"max":[
				0.0618748664855957,
				0.11137771606445312,
				0.06453442573547363
			],
			"min":[
				-0.054227352142333984,
				-0.11110252141952515,
				-0.05167180299758911
			],
			"type":"VEC3"
		},
		{
			"bufferView":6,
			"componentType":5126,
			"count":769,
			"type":"VEC3"
		},
		{
			"bufferView":7,
			"componentType":5126,
			"count":769,
			"type":"VEC2"
		},
		{
			"bufferView":8,
			"componentType":5126,
			"count":769,
			"type":"VEC4"
		},
		{
			"bufferView":9,
			"componentType":5123,
			"count":1143,
			"type":"SCALAR"
		}
	],
	"bufferViews":[
		{
			"buffer":0,
			"byteLength":36696,
			"byteOffset":0,
			"target":34962
		},
		{
			"buffer":0,
			"byteLength":36696,
			"byteOffset":36696,
			"target":34962
		},
		{
			"buffer":0,
			"byteLength":24464,
			"byteOffset":73392,
			"target":34962
		},
		{
			"buffer":0,
			"byteLength":48928,
			"byteOffset":97856,
			"target":34962
		},
		{
			"buffer":0,
			"byteLength":9060,
			"byteOffset":146784,
			"target":34963
		},
		{
			"buffer":0,
			"byteLength":9228,
			"byteOffset":155844,
			"target":34962
		},
		{
			"buffer":0,
			"byteLength":9228,
			"byteOffset":165072,
			"target":34962
		},
		{
			"buffer":0,
			"byteLength":6152,
			"byteOffset":174300,
			"target":34962
		},
		{
			"buffer":0,
			"byteLength":12304,
			"byteOffset":180452,
			"target":34962
		},
		{
			"buffer":0,
			"byteLength":2286,
			"byteOffset":192756,
			"target":34963
		}
	],
	"samplers":[
		{
			"magFilter":9729,
			"minFilter":9987
		}
	],
	"buffers":[
		{
			"byteLength":195044,
			"uri":"viewmodel_arm_r.bin"
		}
	]
}
