{
	"asset":{
		"generator":"Khronos glTF Blender I/O v5.0.21",
		"version":"2.0"
	},
	"scene":0,
	"scenes":[
		{
			"name":"Scene",
			"nodes":[
				0
			]
		}
	],
	"nodes":[
		{
			"mesh":0,
			"name":"trooper_viewmodel_arm_l"
		}
	],
	"materials":[
		{
			"doubleSided":true,
			"emissiveFactor":[
				1,
				1,
				1
			],
			"emissiveTexture":{
				"index":0
			},
			"name":"trooper_body",
			"normalTexture":{
				"index":1
			},
			"pbrMetallicRoughness":{
				"baseColorTexture":{
					"index":2
				},
				"metallicRoughnessTexture":{
					"index":3
				}
			}
		},
		{
			"doubleSided":true,
			"emissiveFactor":[
				1,
				1,
				1
			],
			"emissiveTexture":{
				"index":4
			},
			"name":"trooper_armor",
			"normalTexture":{
				"index":5
			},
			"pbrMetallicRoughness":{
				"baseColorTexture":{
					"index":6
				},
				"metallicRoughnessTexture":{
					"index":7
				}
			}
		}
	],
	"meshes":[
		{
			"name":"trooper_viewmodel_arm_l",
			"primitives":[
				{
					"attributes":{
						"POSITION":0,
						"NORMAL":1,
						"TEXCOORD_0":2,
						"TANGENT":3
					},
					"indices":4,
					"material":0
				},
				{
					"attributes":{
						"POSITION":5,
						"NORMAL":6,
						"TEXCOORD_0":7,
						"TANGENT":8
					},
					"indices":9,
					"material":1
				}
			]
		}
	],
	"textures":[
		{
			"sampler":0,
			"source":0
		},
		{
			"sampler":0,
			"source":1
		},
		{
			"sampler":0,
			"source":2
		},
		{
			"sampler":0,
			"source":3
		},
		{
			"sampler":0,
			"source":4
		},
		{
			"sampler":0,
			"source":5
		},
		{
			"sampler":0,
			"source":6
		},
		{
			"sampler":0,
			"source":7
		}
	],
	"images":[
		{
			"mimeType":"image/png",
			"name":"T_SciFiTrooperV3_bottom_emissive.png",
			"uri":"trooper_body_emissive.png"
		},
		{
			"mimeType":"image/png",
			"name":"T_SciFiTrooperV3_bottom_n.png",
			"uri":"trooper_body_normal.png"
		},
		{
			"mimeType":"image/png",
			"name":"T_SciFiTrooperV3_bottom_a.png",
			"uri":"trooper_body_albedo.png"
		},
		{
			"mimeType":"image/png",
			"name":"trooper_body_orm",
			"uri":"trooper_body_orm.png"
		},
		{
			"mimeType":"image/png",
			"name":"T_SciFiTrooperV3_top_emissive.png",
			"uri":"trooper_armor_emissive.png"
		},
		{
			"mimeType":"image/png",
			"name":"T_SciFiTrooperV3_top_n.png",
			"uri":"trooper_armor_normal.png"
		},
		{
			"mimeType":"image/png",
			"name":"T_SciFiTrooperV3_top_a.png",
			"uri":"trooper_armor_albedo.png"
		},
		{
			"mimeType":"image/png",
			"name":"trooper_armor_orm",
			"uri":"trooper_armor_orm.png"
		}
	],
	"accessors":[
		{
			"bufferView":0,
			"componentType":5126,
			"count":3074,
			"max":[
				0.08605837821960449,
				0.16175436973571777,
				0.0830148458480835
			],
			"min":[
				-0.04571646451950073,
				-0.12602496147155762,
				-0.08738511800765991
			],
			"type":"VEC3"
		},
		{
			"bufferView":1,
			"componentType":5126,
			"count":3074,
			"type":"VEC3"
		},
		{
			"bufferView":2,
			"componentType":5126,
			"count":3074,
			"type":"VEC2"
		},
		{
			"bufferView":3,
			"componentType":5126,
			"count":3074,
			"type":"VEC4"
		},
		{
			"bufferView":4,
			"componentType":5123,
			"count":4554,
			"type":"SCALAR"
		},
		{
			"bufferView":5,
			"componentType":5126,
			"count":785,
			"max":[
				0.05286610126495361,
				0.11507406830787659,
				0.06300181150436401
			],
			"min":[
				-0.06889742612838745,
				-0.12484729290008545,
				-0.05431723594665527
			],
			"type":"VEC3"
		},
		{
			"bufferView":6,
			"componentType":5126,
			"count":785,
			"type":"VEC3"
		},
		{
			"bufferView":7,
			"componentType":5126,
			"count":785,
			"type":"VEC2"
		},
		{
			"bufferView":8,
			"componentType":5126,
			"count":785,
			"type":"VEC4"
		},
		{
			"bufferView":9,
			"componentType":5123,
			"count":1167,
			"type":"SCALAR"
		}
	],
	"bufferViews":[
		{
			"buffer":0,
			"byteLength":36888,
			"byteOffset":0,
			"target":34962
		},
		{
			"buffer":0,
			"byteLength":36888,
			"byteOffset":36888,
			"target":34962
		},
		{
			"buffer":0,
			"byteLength":24592,
			"byteOffset":73776,
			"target":34962
		},
		{
			"buffer":0,
			"byteLength":49184,
			"byteOffset":98368,
			"target":34962
		},
		{
			"buffer":0,
			"byteLength":9108,
			"byteOffset":147552,
			"target":34963
		},
		{
			"buffer":0,
			"byteLength":9420,
			"byteOffset":156660,
			"target":34962
		},
		{
			"buffer":0,
			"byteLength":9420,
			"byteOffset":166080,
			"target":34962
		},
		{
			"buffer":0,
			"byteLength":6280,
			"byteOffset":175500,
			"target":34962
		},
		{
			"buffer":0,
			"byteLength":12560,
			"byteOffset":181780,
			"target":34962
		},
		{
			"buffer":0,
			"byteLength":2334,
			"byteOffset":194340,
			"target":34963
		}
	],
	"samplers":[
		{
			"magFilter":9729,
			"minFilter":9987
		}
	],
	"buffers":[
		{
			"byteLength":196676,
			"uri":"viewmodel_arm_l.bin"
		}
	]
}
